<svg width="210" height="41" viewBox="0 0 210 41" fill="none" xmlns="http://www.w3.org/2000/svg">
<path d="M37.8534 0.5H0V38.3827H37.8534V0.5Z" fill="#0079C8"/>
<path d="M37.8534 27.6662H34.5335C33.199 27.6662 32.2877 26.7541 31.7018 25.9072L28.4144 32.1939C28.2517 32.5196 27.8937 32.7476 27.5356 32.7476C27.4706 32.7476 27.4055 32.7476 27.3404 32.715C26.9172 32.6173 26.5918 32.259 26.5267 31.8356L24.5412 12.0962L20.7006 27.9593C20.6029 28.3502 20.2774 28.676 19.8543 28.7085C19.4312 28.7737 19.0406 28.5457 18.8453 28.1874L16.925 24.6369C15.916 25.9398 13.9957 27.6662 10.6432 27.6662H0V25.6466H10.6432C13.9957 25.6466 15.4278 23.3339 15.9485 22.4545C16.1113 22.1939 16.2415 21.9984 16.4368 21.8356C16.6646 21.6727 16.9575 21.6401 17.2179 21.7053C17.4783 21.7704 17.7061 21.9659 17.8689 22.1939L19.3335 24.8975L23.9554 5.87465C24.0856 5.38605 24.5087 5.06032 24.9969 5.12547C25.4851 5.15804 25.8757 5.54892 25.9082 6.03752L28.1215 28.2525L30.6928 23.3014C30.823 23.0082 31.1159 22.8128 31.4089 22.7802C31.7343 22.7476 32.0273 22.8128 32.2551 23.0408C32.4504 23.2036 32.548 23.4317 32.7433 23.79C33.0688 24.4089 33.6872 25.6141 34.4358 25.6141H37.7557V27.6662H37.8534Z" fill="white"/>
<path d="M54.876 33.4966C54.6156 33.8875 54.3227 34.2458 53.9321 34.5064C53.5415 34.767 53.1184 34.995 52.6627 35.1253C52.1745 35.2556 51.6863 35.3207 51.1655 35.3207H49.2777L48.9197 38.3501H47.2598L48.4315 28.9038H52.142C52.6953 28.9038 53.1835 28.969 53.6066 29.1318C54.0298 29.2947 54.3878 29.4901 54.6482 29.7833C54.9086 30.0764 55.1364 30.4022 55.234 30.7931C55.3642 31.1839 55.3968 31.6074 55.3317 32.096C55.2666 32.6172 55.1038 33.1058 54.876 33.4966ZM53.2486 30.8582C52.9231 30.565 52.4349 30.4348 51.8165 30.4348H49.8636L49.4405 33.8549H51.3934C52.0118 33.8549 52.5325 33.6921 52.9557 33.3989C53.3462 33.0732 53.6066 32.6823 53.6717 32.1611C53.7043 31.5748 53.5741 31.1188 53.2486 30.8582Z" fill="#0079C8"/>
<path d="M55.5268 34.8324C55.8197 32.4545 57.5773 31.0864 59.3023 31.0864C60.4741 31.0864 61.1576 31.6727 61.5807 32.3568L61.7109 31.2493H63.3383L62.4595 38.3828H60.8321L60.9623 37.1776C60.3439 37.9268 59.5302 38.5131 58.3584 38.5131C56.731 38.5131 55.2664 37.1776 55.5268 34.8324ZM61.3203 34.8324C61.4831 33.4317 60.6368 32.5197 59.5302 32.5197C58.4235 32.5197 57.382 33.3991 57.1867 34.7998V34.8324C57.024 36.2004 57.8377 37.1125 58.9443 37.1125C60.0509 37.1125 61.125 36.2004 61.3203 34.8324Z" fill="#0079C8"/>
<path d="M65.8445 38.3828H64.1846L65.0634 31.2492H66.7233L66.528 32.8453C66.821 32.2916 67.179 31.8681 67.6347 31.5424C68.0903 31.2167 68.6436 31.0538 69.2621 31.0864L69.0342 32.8128H68.9366C68.5786 32.8128 68.2531 32.8779 67.9276 32.9756C67.6021 33.1059 67.3417 33.2688 67.0813 33.4968C66.821 33.7248 66.6257 34.018 66.4629 34.3763C66.3002 34.7346 66.2025 35.158 66.1375 35.6141L65.8445 38.3828Z" fill="#0079C8"/>
<path d="M71.7033 36.1353C71.6708 36.461 71.7033 36.689 71.8335 36.8193C71.9637 36.9496 72.1916 37.0147 72.4519 37.0147C72.81 37.0147 73.1355 36.9496 73.4935 36.7867L73.3307 38.1222C73.1029 38.2525 72.8751 38.3177 72.6472 38.3828C72.4194 38.448 72.1265 38.4805 71.8335 38.4805C71.5406 38.4805 71.2802 38.448 71.0198 38.3828C70.7595 38.3177 70.5642 38.1874 70.4014 38.0245C70.2387 37.8617 70.1085 37.6336 70.0434 37.3731C69.9783 37.1125 69.9783 36.7867 70.0108 36.3633L70.4665 32.5848H69.5552L69.7179 31.1841H70.6293L70.8571 29.2297H72.517L72.2892 31.1841H74.2095L74.0468 32.5848H72.1265L71.7033 36.1353Z" fill="#0079C8"/>
<path d="M76.5204 36.7541C76.8459 37.0798 77.269 37.2101 77.8223 37.2101C78.2129 37.2101 78.6035 37.145 78.8964 36.9821C79.2219 36.8518 79.5148 36.6238 79.8403 36.3632L80.6866 37.2101C80.296 37.601 79.8403 37.9267 79.3521 38.1873C78.8639 38.4153 78.278 38.5456 77.627 38.5456C77.1063 38.5456 76.6506 38.4479 76.2275 38.285C75.8044 38.0896 75.4463 37.8616 75.1534 37.5358C74.8605 37.2101 74.6652 36.8192 74.535 36.3632C74.4048 35.9072 74.3722 35.386 74.4373 34.8323C74.5024 34.3111 74.6326 33.8225 74.8605 33.399C75.0883 32.943 75.3812 32.5521 75.7393 32.2264C76.0973 31.9007 76.4879 31.6075 76.9435 31.4121C77.3992 31.2166 77.8874 31.1189 78.3756 31.1189C78.929 31.1189 79.4172 31.2166 79.8403 31.4446C80.2309 31.6401 80.5564 31.9332 80.8167 32.2915C81.0446 32.6498 81.2073 33.0407 81.305 33.5293C81.4026 33.9853 81.4026 34.4739 81.3375 34.9951C81.3375 35.0603 81.305 35.1254 81.305 35.2231C81.305 35.2883 81.2724 35.386 81.2724 35.4511H76.0322C75.9996 35.9723 76.1949 36.4283 76.5204 36.7541ZM79.7752 34.3111C79.7752 34.0505 79.7427 33.7899 79.6776 33.5619C79.6125 33.3339 79.5148 33.1384 79.3846 32.9756C79.2544 32.8127 79.0917 32.6824 78.8964 32.5847C78.7011 32.487 78.4733 32.4218 78.1804 32.4218C77.6921 32.4218 77.2365 32.5847 76.8784 32.943C76.5204 33.3013 76.26 33.7573 76.0973 34.3111H79.7752Z" fill="#0079C8"/>
<path d="M90.7112 38.3826L90.8414 37.1774C90.5485 37.5357 90.1579 37.8615 89.7348 38.1221C89.3117 38.3826 88.8235 38.5129 88.2376 38.5129C87.8145 38.5129 87.4239 38.4478 87.0333 38.2849C86.6427 38.1221 86.3498 37.894 86.0569 37.5683C85.7965 37.2426 85.6012 36.8517 85.471 36.3957C85.3408 35.9397 85.3083 35.4185 85.3734 34.7996C85.4385 34.2133 85.6012 33.6921 85.829 33.2035C86.0569 32.7475 86.3498 32.3566 86.7078 32.0309C87.0659 31.7051 87.4239 31.4771 87.847 31.3142C88.2701 31.1514 88.6933 31.0862 89.1164 31.0862C89.7023 31.0862 90.1579 31.2165 90.516 31.4771C90.874 31.7377 91.1669 32.0309 91.3622 32.3566L91.8179 28.5129H93.4778L92.2735 38.3826H90.7112ZM91.1344 33.855C91.0693 33.5618 90.9391 33.3338 90.7763 33.1383C90.6136 32.9429 90.4183 32.78 90.1905 32.6823C89.9626 32.5846 89.7023 32.5195 89.4419 32.5195C89.1489 32.5195 88.8886 32.5846 88.6282 32.6823C88.3678 32.78 88.1399 32.9429 87.9121 33.1383C87.6843 33.3338 87.5215 33.5618 87.3913 33.855C87.2611 34.1481 87.1635 34.4739 87.0984 34.8322C87.0659 35.1905 87.0659 35.5162 87.131 35.7768C87.1961 36.0699 87.3263 36.298 87.489 36.4934C87.6517 36.6888 87.847 36.8517 88.0749 36.9494C88.3027 37.0471 88.5631 37.1123 88.856 37.1123C89.1164 37.1123 89.3768 37.0471 89.6697 36.9494C89.9301 36.8517 90.1579 36.6888 90.3858 36.4934C90.6136 36.298 90.7763 36.0374 90.9391 35.7768C91.1018 35.4836 91.1669 35.1905 91.232 34.8322C91.2971 34.4739 91.1995 34.1481 91.1344 33.855Z" fill="#0079C8"/>
<path d="M96.2445 36.7541C96.57 37.0798 96.9931 37.2101 97.5465 37.2101C97.937 37.2101 98.3276 37.145 98.6205 36.9821C98.946 36.8518 99.2389 36.6238 99.5644 36.3632L100.411 37.2101C100.02 37.601 99.5644 37.9267 99.0762 38.1873C98.588 38.4153 98.0021 38.5456 97.3512 38.5456C96.8304 38.5456 96.3747 38.4479 95.9516 38.285C95.5285 38.0896 95.1704 37.8616 94.8775 37.5358C94.5846 37.2101 94.3893 36.8192 94.2591 36.3632C94.1289 35.9072 94.0964 35.386 94.1615 34.8323C94.2266 34.3111 94.3567 33.8225 94.5846 33.399C94.8124 32.943 95.1053 32.5521 95.4634 32.2264C95.8214 31.9007 96.212 31.6075 96.6676 31.4121C97.1233 31.2166 97.6115 31.1189 98.0998 31.1189C98.6531 31.1189 99.1413 31.2166 99.5644 31.4446C99.955 31.6401 100.28 31.9332 100.541 32.2915C100.769 32.6498 100.931 33.0407 101.029 33.5293C101.127 33.9853 101.127 34.4739 101.062 34.9951C101.062 35.0603 101.029 35.1254 101.029 35.2231C101.029 35.2883 100.997 35.386 100.997 35.4511H95.7563C95.7238 35.9723 95.8865 36.4283 96.2445 36.7541ZM99.4668 34.3111C99.4668 34.0505 99.4342 33.7899 99.3691 33.5619C99.304 33.3339 99.2064 33.1384 99.0762 32.9756C98.946 32.8127 98.7833 32.6824 98.588 32.5847C98.3927 32.487 98.1649 32.4218 97.8719 32.4218C97.3837 32.4218 96.928 32.5847 96.57 32.943C96.212 33.3013 95.9516 33.7573 95.7889 34.3111H99.4668Z" fill="#0079C8"/>
<path d="M112.844 29.5553C113.332 29.9787 113.56 30.565 113.463 31.3142C113.43 31.6074 113.365 31.868 113.267 32.096C113.17 32.324 113.04 32.5194 112.909 32.6823C112.779 32.8452 112.616 33.008 112.421 33.1383C112.226 33.2686 112.063 33.3663 111.868 33.4641C112.128 33.5618 112.356 33.6921 112.584 33.8224C112.812 33.9527 112.974 34.1155 113.105 34.2784C113.235 34.4738 113.365 34.6693 113.398 34.9299C113.463 35.1905 113.463 35.451 113.43 35.7768C113.365 36.2002 113.235 36.5585 113.04 36.8843C112.844 37.21 112.551 37.4706 112.226 37.6986C111.9 37.9266 111.51 38.0895 111.054 38.1872C110.598 38.2849 110.11 38.3501 109.589 38.3501H105.228L106.4 28.9038H110.631C111.607 28.9364 112.356 29.1318 112.844 29.5553ZM111.217 36.5911C111.575 36.3631 111.77 36.0374 111.835 35.6139C111.9 35.223 111.77 34.8973 111.477 34.6693C111.184 34.4413 110.729 34.3435 110.045 34.3435H107.409L107.083 36.9494H109.817C110.403 36.9168 110.859 36.7865 111.217 36.5911ZM111.184 32.6172C111.542 32.3891 111.738 32.0634 111.803 31.64C111.835 31.2491 111.738 30.9559 111.477 30.7279C111.217 30.4999 110.826 30.4022 110.273 30.4022H107.897L107.571 32.9429H109.817C110.371 32.9103 110.826 32.8126 111.184 32.6172Z" fill="#0079C8"/>
<path d="M120.037 31.249H121.697L120.819 38.3826H119.159L119.289 37.2751C119.028 37.6334 118.67 37.9265 118.312 38.1546C117.922 38.4151 117.466 38.5454 116.913 38.5454C116.099 38.5454 115.513 38.2849 115.123 37.7963C114.732 37.3077 114.602 36.6236 114.7 35.8093L115.253 31.2816H116.913L116.425 35.3207C116.359 35.8744 116.425 36.2979 116.652 36.6236C116.88 36.9168 117.238 37.0796 117.727 37.0796C118.215 37.0796 118.605 36.9168 118.931 36.6236C119.256 36.2979 119.452 35.8744 119.517 35.3207L120.037 31.249Z" fill="#0079C8"/>
<path d="M129.9 36.3956C129.672 36.8517 129.379 37.2425 129.021 37.5683C128.663 37.894 128.272 38.122 127.882 38.2849C127.458 38.4477 127.035 38.5129 126.612 38.5129C126.026 38.5129 125.571 38.3826 125.213 38.122C124.855 37.8614 124.562 37.5683 124.366 37.2425L123.976 40.4999H122.316L123.455 31.2165H125.115L124.985 32.4217C125.278 32.0308 125.668 31.7376 126.059 31.4771C126.482 31.2165 126.97 31.0862 127.556 31.0862C127.979 31.0862 128.37 31.1513 128.76 31.3142C129.151 31.4771 129.444 31.7051 129.737 32.0308C129.997 32.3565 130.225 32.7474 130.355 33.2034C130.485 33.6595 130.518 34.1806 130.453 34.7995C130.29 35.4184 130.127 35.9396 129.9 36.3956ZM128.663 33.8549C128.598 33.5618 128.467 33.3337 128.305 33.1383C128.142 32.9429 127.947 32.78 127.719 32.6823C127.491 32.5846 127.231 32.5194 126.938 32.5194C126.645 32.5194 126.384 32.5846 126.124 32.6823C125.864 32.78 125.603 32.9429 125.408 33.1383C125.18 33.3337 125.017 33.5943 124.855 33.8549C124.692 34.1481 124.627 34.4412 124.562 34.7995C124.497 35.1578 124.529 35.451 124.627 35.7442C124.692 36.0373 124.822 36.2653 124.985 36.4608C125.148 36.6562 125.343 36.8191 125.603 36.9168C125.831 37.0145 126.091 37.0797 126.384 37.0797C126.677 37.0797 126.938 37.0145 127.198 36.9168C127.459 36.8191 127.686 36.6562 127.914 36.4608C128.109 36.2653 128.305 36.0373 128.435 35.7442C128.565 35.451 128.663 35.1578 128.728 34.7995C128.793 34.4412 128.728 34.1481 128.663 33.8549Z" fill="#0079C8"/>
<path d="M131.332 34.8324C131.624 32.4545 133.382 31.0864 135.107 31.0864C136.279 31.0864 136.962 31.6727 137.385 32.3568L137.516 31.2493H139.143L138.264 38.3828H136.637L136.767 37.1776C136.149 37.9268 135.335 38.5131 134.163 38.5131C132.503 38.5131 131.039 37.1776 131.332 34.8324ZM137.093 34.8324C137.255 33.4317 136.409 32.5197 135.302 32.5197C134.196 32.5197 133.154 33.3991 132.959 34.7998V34.8324C132.796 36.2004 133.61 37.1125 134.717 37.1125C135.823 37.1125 136.93 36.2004 137.093 34.8324Z" fill="#0079C8"/>
<path d="M63.8269 20.5978C63.1759 21.0539 62.4924 21.4447 61.7764 21.7705C61.0603 22.0962 60.2792 22.3568 59.4655 22.5196C58.6192 22.6825 57.7404 22.7802 56.764 22.7802C55.2342 22.7802 53.8346 22.4871 52.5978 21.9333C51.361 21.3796 50.352 20.5978 49.5057 19.6532C48.6595 18.676 48.0736 17.5359 47.6831 16.233C47.2925 14.8975 47.1948 13.4969 47.3901 11.9659C47.5854 10.4675 48.0085 9.06688 48.692 7.73138C49.3756 6.39587 50.2544 5.25581 51.361 4.27861C52.4351 3.30141 53.6719 2.51965 55.0715 1.93333C56.471 1.34701 57.9682 1.08643 59.5631 1.08643C60.507 1.08643 61.3858 1.15157 62.1669 1.31444C62.9481 1.47731 63.6316 1.70532 64.25 1.99848C64.8684 2.29164 65.4543 2.61737 65.9425 3.04082C66.4633 3.4317 66.919 3.88773 67.3746 4.37633L64.6731 7.11249C63.9245 6.33073 63.1108 5.71183 62.232 5.22323C61.3532 4.73463 60.3117 4.50662 59.1074 4.50662C58.0984 4.50662 57.1545 4.70206 56.2757 5.09294C55.3644 5.48382 54.5832 6.00499 53.8672 6.68903C53.1511 7.37307 52.5978 8.15483 52.1421 9.03431C51.6865 9.94636 51.3935 10.891 51.2633 11.9333C51.1331 12.9757 51.1982 13.9529 51.4261 14.8649C51.6539 15.777 52.0445 16.5587 52.5653 17.2428C53.086 17.9268 53.7695 18.448 54.5832 18.8389C55.3969 19.2297 56.2757 19.4252 57.2847 19.4252C58.5541 19.4252 59.6933 19.1646 60.6697 18.676C61.6462 18.1874 62.6552 17.5359 63.6316 16.689L65.7147 19.0995C65.0963 19.6206 64.4779 20.1418 63.8269 20.5978Z" fill="#0079C8"/>
<path d="M71.3778 22.3891H67.7324L69.6853 6.55852H73.3307L72.9076 10.1416C73.5585 8.93637 74.3722 7.99175 75.3812 7.27514C76.3902 6.55852 77.5945 6.23279 78.994 6.29794L78.5384 10.1416H78.3431C77.5294 10.1416 76.8133 10.2719 76.0973 10.5325C75.4138 10.7931 74.7953 11.1839 74.242 11.7051C73.6887 12.2263 73.233 12.8777 72.9076 13.6595C72.5495 14.4413 72.3217 15.3533 72.1915 16.3957L71.3778 22.3891Z" fill="#0079C8"/>
<path d="M91.3949 6.55859H95.0403L93.0874 22.3892H89.442L89.735 19.9136C89.1165 20.6954 88.4005 21.3469 87.5542 21.9006C86.708 22.4544 85.6664 22.7475 84.4622 22.7475C82.672 22.7475 81.3376 22.1938 80.5239 21.0863C79.6776 19.9788 79.3847 18.513 79.6125 16.6563L80.8493 6.59117H84.4947L83.3881 15.5814C83.2253 16.8192 83.4206 17.7638 83.9089 18.4478C84.3971 19.1319 85.2108 19.4576 86.2523 19.4576C87.2938 19.4576 88.2052 19.0993 88.9213 18.4153C89.6699 17.7312 90.093 16.754 90.2557 15.5162L91.3949 6.55859Z" fill="#0079C8"/>
<path d="M97.8394 9.52276L98.1975 6.55859H111.64L111.347 9.03416L100.932 19.425H110.078L109.719 22.3892H95.9517L96.2446 19.9136L106.66 9.52276H97.8394Z" fill="#0079C8"/>
<path d="M129.639 2.84519C130.746 3.82239 131.201 5.12532 131.006 6.78656C130.941 7.43803 130.778 7.99177 130.55 8.51295C130.322 9.00155 130.062 9.45757 129.737 9.81588C129.411 10.1742 129.053 10.4999 128.662 10.7931C128.272 11.0862 127.849 11.3142 127.458 11.5097C128.044 11.7377 128.565 11.9983 129.053 12.2589C129.509 12.552 129.932 12.8778 130.225 13.3012C130.55 13.6921 130.778 14.1807 130.908 14.7344C131.038 15.2882 131.071 15.9071 130.973 16.6237C130.843 17.5683 130.583 18.3827 130.127 19.0993C129.671 19.8159 129.086 20.4348 128.337 20.9234C127.588 21.412 126.742 21.7703 125.733 22.0309C124.757 22.2914 123.683 22.3892 122.511 22.3892H112.812L115.383 1.37939H124.789C126.905 1.41197 128.532 1.90057 129.639 2.84519ZM126.026 18.4152C126.807 17.9266 127.263 17.21 127.361 16.2328C127.458 15.3208 127.198 14.6367 126.547 14.1481C125.896 13.6595 124.854 13.3989 123.39 13.3989H117.564L116.847 19.1644H122.934C124.236 19.1318 125.245 18.9038 126.026 18.4152ZM125.961 9.58786C126.742 9.09927 127.198 8.38265 127.295 7.40545C127.393 6.52598 127.165 5.87451 126.612 5.38591C126.026 4.89731 125.147 4.6693 123.976 4.6693H118.67L117.987 10.2719H122.999C124.203 10.2719 125.18 10.0439 125.961 9.58786Z" fill="#0079C8"/>
<path d="M133.251 22.3893L135.953 0.5H139.598L136.897 22.3893H133.251Z" fill="#0079C8"/>
<path d="M162.317 22.3893H158.672L160.625 6.55864H164.238L163.945 9.03421C164.238 8.64333 164.563 8.28503 164.921 7.95929C165.279 7.63356 165.67 7.3404 166.093 7.07982C166.548 6.81923 167.004 6.62379 167.525 6.46092C168.046 6.29806 168.599 6.23291 169.217 6.23291C171.008 6.23291 172.342 6.78666 173.156 7.89415C174.002 9.00164 174.295 10.4674 174.067 12.3241L172.83 22.3893H169.185L170.292 13.399C170.454 12.1612 170.259 11.2166 169.771 10.5326C169.283 9.84855 168.469 9.52281 167.427 9.52281C166.386 9.52281 165.474 9.88112 164.758 10.5652C164.01 11.2492 163.587 12.2264 163.424 13.4642L162.317 22.3893Z" fill="#0079C8"/>
<path d="M187.412 21.9332C186.338 22.487 185.036 22.7476 183.506 22.7476C182.334 22.7476 181.26 22.5196 180.316 22.0961C179.372 21.6726 178.559 21.0863 177.94 20.3371C177.289 19.588 176.834 18.7085 176.541 17.7313C176.248 16.7541 176.183 15.6792 176.313 14.5391C176.443 13.399 176.801 12.3241 177.322 11.3143C177.843 10.3046 178.526 9.42509 179.372 8.67591C180.186 7.92672 181.163 7.30783 182.204 6.88438C183.278 6.46092 184.385 6.23291 185.557 6.23291C187.054 6.23291 188.258 6.4935 189.202 6.9821C190.146 7.47069 190.927 8.15473 191.545 8.96907L189.007 11.4121C188.518 10.8257 187.998 10.3697 187.412 9.97884C186.826 9.62053 186.077 9.42509 185.166 9.42509C184.515 9.42509 183.864 9.55539 183.278 9.81597C182.692 10.0766 182.172 10.4349 181.716 10.9235C181.26 11.3795 180.87 11.9332 180.577 12.5196C180.284 13.1384 180.089 13.7899 179.991 14.474C179.893 15.1906 179.926 15.8746 180.089 16.4935C180.251 17.1124 180.512 17.6661 180.87 18.1222C181.228 18.5782 181.683 18.9365 182.237 19.2297C182.79 19.4902 183.408 19.6205 184.092 19.6205C184.938 19.6205 185.719 19.4251 186.435 19.0668C187.119 18.7085 187.802 18.2199 188.453 17.6336L190.374 19.7834C189.462 20.6629 188.486 21.3795 187.412 21.9332Z" fill="#0079C8"/>
<path d="M192.717 14.5391V14.474C193.368 9.22965 197.274 6.23291 201.049 6.23291C203.653 6.23291 205.15 7.53584 206.094 9.03421L206.387 6.55864H210L208.047 22.4218H204.434L204.76 19.7834C203.393 21.4446 201.57 22.7476 198.999 22.7476C195.354 22.7801 192.066 19.7834 192.717 14.5391ZM205.508 14.5391V14.474C205.899 11.4121 203.979 9.39252 201.538 9.39252C199.064 9.39252 196.753 11.3143 196.363 14.474V14.5391C195.972 17.601 197.827 19.6205 200.301 19.6205C202.742 19.6205 205.118 17.5684 205.508 14.5391Z" fill="#0079C8"/>
<path d="M140.477 14.5391V14.474C141.128 9.22965 145.034 6.23291 148.81 6.23291C151.413 6.23291 152.911 7.53584 153.855 9.03421L154.147 6.55864H157.76L155.807 22.4218H152.195L152.52 19.7834C151.153 21.4446 149.33 22.7476 146.759 22.7476C143.114 22.7801 139.859 19.7834 140.477 14.5391ZM153.269 14.5391V14.474C153.659 11.4121 151.739 9.39252 149.298 9.39252C146.824 9.39252 144.513 11.3143 144.123 14.474V14.5391C143.732 17.601 145.587 19.6205 148.061 19.6205C150.502 19.6205 152.878 17.5684 153.269 14.5391Z" fill="#0079C8"/>
</svg>
